<?xml version="1.0" standalone="no"?><!DOCTYPE svg PUBLIC "-//W3C//DTD SVG 1.1//EN" "http://www.w3.org/Graphics/SVG/1.1/DTD/svg11.dtd"><svg t="1642564137729" class="icon" viewBox="0 0 1024 1024" version="1.1" xmlns="http://www.w3.org/2000/svg" p-id="13604" xmlns:xlink="http://www.w3.org/1999/xlink" width="128" height="128"><defs><style type="text/css">@font-face { font-family: Circular; font-weight: 400; src: url("chrome-extension://pefhciejnkgdgoahgfeklebcbpmhnhhd/font/Circular-Pro-Black-Regular.eot?#iefix") format("embedded-opentype"), url("chrome-extension://pefhciejnkgdgoahgfeklebcbpmhnhhd/font/Circular-Pro-Black-Regular.woff2") format("woff2"), url("chrome-extension://pefhciejnkgdgoahgfeklebcbpmhnhhd/font/Circular-Pro-Black-Regular.woff") format("woff"), url("chrome-extension://pefhciejnkgdgoahgfeklebcbpmhnhhd/font/Circular-Pro-Black-Regular.ttf") format("truetype"), url("chrome-extension://pefhciejnkgdgoahgfeklebcbpmhnhhd/font/Circular-Pro-Black-Regular.svg") format("svg"); }
@font-face { font-family: Circular; font-weight: 700; src: url("chrome-extension://pefhciejnkgdgoahgfeklebcbpmhnhhd/font/Circular-Pro-Black-Bold.eot?#iefix") format("embedded-opentype"), url("chrome-extension://pefhciejnkgdgoahgfeklebcbpmhnhhd/font/Circular-Pro-Black-Bold.woff2") format("woff2"), url("chrome-extension://pefhciejnkgdgoahgfeklebcbpmhnhhd/font/Circular-Pro-Black-Bold.woff") format("woff"), url("chrome-extension://pefhciejnkgdgoahgfeklebcbpmhnhhd/font/Circular-Pro-Black-Bold.ttf") format("truetype"), url("chrome-extension://pefhciejnkgdgoahgfeklebcbpmhnhhd/font/Circular-Pro-Black-Bold.svg") format("svg"); }
</style></defs><path d="M819.2 102.4V0H204.8v102.4H0V256a256 256 0 0 0 221.184 252.416 307.2 307.2 0 0 0 239.616 204.8V921.6H307.2V1024h409.6V921.6H563.2V712.192a307.2 307.2 0 0 0 239.616-204.8A256 256 0 0 0 1024 256V102.4zM102.4 256v-51.2h102.4v196.096A153.6 153.6 0 0 1 102.4 256z m819.2 0a153.6 153.6 0 0 1-102.4 144.896V204.8h102.4z" p-id="13605" fill="#ffb401"></path></svg>