<?xml version="1.0" standalone="no"?><!DOCTYPE svg PUBLIC "-//W3C//DTD SVG 1.1//EN" "http://www.w3.org/Graphics/SVG/1.1/DTD/svg11.dtd"><svg t="1642562922314" class="icon" viewBox="0 0 1032 1024" version="1.1" xmlns="http://www.w3.org/2000/svg" p-id="5917" xmlns:xlink="http://www.w3.org/1999/xlink" width="129" height="128"><defs><style type="text/css">@font-face { font-family: Circular; font-weight: 400; src: url("chrome-extension://pefhciejnkgdgoahgfeklebcbpmhnhhd/font/Circular-Pro-Black-Regular.eot?#iefix") format("embedded-opentype"), url("chrome-extension://pefhciejnkgdgoahgfeklebcbpmhnhhd/font/Circular-Pro-Black-Regular.woff2") format("woff2"), url("chrome-extension://pefhciejnkgdgoahgfeklebcbpmhnhhd/font/Circular-Pro-Black-Regular.woff") format("woff"), url("chrome-extension://pefhciejnkgdgoahgfeklebcbpmhnhhd/font/Circular-Pro-Black-Regular.ttf") format("truetype"), url("chrome-extension://pefhciejnkgdgoahgfeklebcbpmhnhhd/font/Circular-Pro-Black-Regular.svg") format("svg"); }
@font-face { font-family: Circular; font-weight: 700; src: url("chrome-extension://pefhciejnkgdgoahgfeklebcbpmhnhhd/font/Circular-Pro-Black-Bold.eot?#iefix") format("embedded-opentype"), url("chrome-extension://pefhciejnkgdgoahgfeklebcbpmhnhhd/font/Circular-Pro-Black-Bold.woff2") format("woff2"), url("chrome-extension://pefhciejnkgdgoahgfeklebcbpmhnhhd/font/Circular-Pro-Black-Bold.woff") format("woff"), url("chrome-extension://pefhciejnkgdgoahgfeklebcbpmhnhhd/font/Circular-Pro-Black-Bold.ttf") format("truetype"), url("chrome-extension://pefhciejnkgdgoahgfeklebcbpmhnhhd/font/Circular-Pro-Black-Bold.svg") format("svg"); }
</style></defs><path d="M962.220857 343.684193l-234.111204-29.242399c-14.621199 0-29.242399-7.396607-29.242399-22.017806L589.294265 58.484798c-29.242399-51.260205-102.348396-58.484798-138.987401 0l-102.348396 219.490005c0 14.621199-14.621199 22.017806-22.017806 22.017806L69.983666 336.4596C4.102261 343.684193-25.140137 409.565597 26.120067 460.825802l175.454393 160.833193c14.621199 14.621199 14.621199 22.017806 14.6212 36.639006L164.935455 906.858391c-7.396607 65.881404 43.863598 116.969595 109.745002 80.502603l212.093398-116.969595c14.621199-7.396607 29.242399-7.396607 36.639006 0l226.714598 124.366202c58.484798 29.242399 124.366202-7.396607 109.745002-80.502604l-51.260205-234.111204c0-14.621199 0-29.242399 14.6212-36.639005l190.247606-175.454393c36.466991-43.863598 21.845792-116.969595-51.260205-124.366202z" fill="#dbdbdb" p-id="5918"></path><path d="M523.584875 17.373425c-26.834201-1.376113-54.872501 11.352931-73.278011 41.111373l-102.348396 219.490005c0 14.621199-14.621199 22.017806-22.017806 22.017806L69.983666 336.4596C4.102261 343.684193-25.140137 409.565597 26.120067 460.825802l175.454393 160.833193c14.621199 14.621199 14.621199 22.017806 14.6212 36.639006L164.935455 906.858391c-7.396607 65.881404 43.863598 116.969595 109.745002 80.502603l212.093398-116.969595c14.621199-7.396607 29.242399-7.396607 36.639006 0l0.172014 0.172014v-853.189988z" fill="#dbdbdb" p-id="5919"></path></svg>