<svg xmlns="http://www.w3.org/2000/svg" width="96" height="38" viewBox="0 0 96 38">
  <g fill="none" fill-rule="evenodd">
    <path fill="#FFF" fill-rule="nonzero" d="M32.7146177,10.1090654 L43.8664194,10.1090654 C44.9447776,10.1090654 45.8653273,10.9770123 45.8653273,12.1079733 L45.8653273,20.2351118 C45.8653273,21.31347 44.9447776,22.2340197 43.8664194,22.2340197 L43.7349123,22.2340197 L45.9179301,27.8625234 L41.4466889,27.8625234 L39.2373697,22.2340197 L37.2910647,22.2340197 L37.2910647,27.8625234 L32.7146177,27.8625234 L32.7146177,10.1090654 Z M41.3151818,18.4203139 L41.3151818,14.1857854 C41.3151818,14.0542783 41.1836747,13.9227712 41.078469,13.9227712 L37.2910647,13.9227712 L37.2910647,18.6570267 L41.078469,18.6570267 C41.1836747,18.6570267 41.3151818,18.5255196 41.3151818,18.4203139 Z M49.4535419,10.1090654 L60.316028,10.1090654 C61.3943862,10.1090654 62.3149358,10.9770123 62.3149358,12.1079733 L62.3149358,21.2345657 C62.3149358,22.2866225 61.3943862,23.2334736 60.316028,23.2334736 L54.0299888,23.2334736 L54.0299888,27.8625234 L49.4535419,27.8625234 L49.4535419,10.1090654 Z M54.0299888,19.4723706 L57.5017761,19.4723706 C57.6332832,19.4723706 57.7384889,19.3408636 57.7384889,19.2356579 L57.7384889,14.1857854 C57.7384889,14.0542783 57.6332832,13.9227712 57.5017761,13.9227712 L54.0299888,13.9227712 L54.0299888,19.4723706 Z M73.8958875,16.9739083 L78.9103314,16.9739083 L78.9103314,25.8373186 C78.9103314,26.9946509 78.0101589,27.8625234 76.8708261,27.8625234 L67.9168817,27.8625234 C66.7778045,27.8625234 65.8505476,26.9946509 65.8505476,25.8373186 L65.8505476,12.1078865 C65.8505476,11.0294516 66.7778045,10.1090654 67.9168817,10.1090654 L78.9103314,10.1090654 L78.9103314,13.9227825 L70.6981415,13.9227825 C70.5657857,13.9227825 70.4334299,14.0541937 70.4334299,14.2122424 L70.4334299,23.73347 C70.4334299,23.8910113 70.5657857,23.9962925 70.6981415,23.9962925 L74.4071691,23.9962925 C74.5924161,23.9962925 74.698454,23.8910113 74.698454,23.73347 L74.698454,20.7348579 L72.2879437,20.7348579 L73.8958875,16.9739083 Z M90.5080517,16.9739083 L95.5224956,16.9739083 L95.5224956,25.8373186 C95.5224956,26.9946509 94.6223231,27.8625234 93.4829903,27.8625234 L84.5290459,27.8625234 C83.3899687,27.8625234 82.4627118,26.9946509 82.4627118,25.8373186 L82.4627118,12.1078865 C82.4627118,11.0294516 83.3899687,10.1090654 84.5290459,10.1090654 L95.5224956,10.1090654 L95.5224956,13.9227825 L87.3103057,13.9227825 C87.1779499,13.9227825 87.0455941,14.0541937 87.0455941,14.2122424 L87.0455941,23.73347 C87.0455941,23.8910113 87.1779499,23.9962925 87.3103057,23.9962925 L91.0193333,23.9962925 C91.2045803,23.9962925 91.3106182,23.8910113 91.3106182,23.73347 L91.3106182,20.7348579 L88.900108,20.7348579 L90.5080517,16.9739083 Z"/>
    <polygon fill="#FF5100" points="24.87 7.01 21.107 8.035 24.792 0 .9 8.794 2.206 19.327 0 21.454 6.577 37.93 20.558 32.779 25.418 21.37 23.331 19.358"/>
  </g>
</svg>
