<?xml version="1.0" standalone="no"?><!DOCTYPE svg PUBLIC "-//W3C//DTD SVG 1.1//EN" "http://www.w3.org/Graphics/SVG/1.1/DTD/svg11.dtd"><svg t="1663205139743" class="icon" viewBox="0 0 1024 1024" version="1.1" xmlns="http://www.w3.org/2000/svg" p-id="1518" xmlns:xlink="http://www.w3.org/1999/xlink" width="200" height="200"><path d="M512.692706 993.626353c-91.979294 0-180.766118-25.795765-257.882353-74.767059l-67.975529 30.72c-21.052235 9.517176-44.815059 7.152941-63.563295-6.324706s-28.596706-35.222588-26.307764-58.217412l11.083294-111.570823c-51.546353-79.510588-78.215529-171.550118-77.206588-266.932706 2.785882-263.363765 218.714353-476.687059 481.882353-476.687059h2.544941c94.810353 0.496941 186.428235 28.521412 264.96 81.03153 76.574118 51.2 136.613647 122.714353 173.643294 206.772706 6.701176 15.224471-0.195765 32.993882-15.420235 39.710117-15.224471 6.701176-32.993882-0.195765-39.710118-15.420235-67.011765-152.109176-217.660235-250.970353-383.789177-251.828706h-2.228705c-230.294588 0-419.222588 186.639059-421.647059 417.084235-0.918588 86.723765 24.289882 170.270118 72.899764 241.618824l6.159059 9.050353-13.236706 133.150117c-0.060235 0.572235-0.210824 2.093176 1.505883 3.328 1.716706 1.219765 3.102118 0.602353 3.629176 0.361412l98.56-44.544 13.989647 9.592471c70.279529 48.188235 152.621176 73.652706 238.125177 73.652706 232.493176 0 421.647059-189.153882 421.647059-421.647059 0-16.64 13.477647-30.117647 30.117647-30.117647s30.117647 13.477647 30.117647 30.117647c0 128.707765-50.130824 249.720471-141.146353 340.736-91.030588 91.000471-212.028235 141.131294-340.751059 141.131294z m-0.737882-252.024471c-70.339765 0-135.243294-40.628706-173.613177-108.694588-8.161882-14.486588-3.041882-32.858353 11.444706-41.020235 14.486588-8.176941 32.858353-3.041882 41.020235 11.444706 27.542588 48.865882 72.839529 78.034824 121.133177 78.034823 48.308706 0 93.590588-29.168941 121.133176-78.034823 8.161882-14.486588 26.533647-19.621647 41.020235-11.444706 14.486588 8.161882 19.621647 26.533647 11.444706 41.020235-38.339765 68.050824-103.243294 108.694588-173.583058 108.694588z" p-id="1519" fill="#ffffff"></path></svg>