<svg xmlns="http://www.w3.org/2000/svg" width="27" height="24" fill="none"><path fill="#FFC9D0" d="M24.807 10.828v10.86a1.086 1.086 0 01-1.086 1.086H3.086A1.086 1.086 0 012 21.688v-9.774"/><path stroke="#FE4A64" d="M24.807 10.828v10.86a1.086 1.086 0 01-1.086 1.086H3.086A1.086 1.086 0 012 21.688v-9.774"/><path fill="#FFC9D0" d="M15.674 14.457L26 12.175V5.56a1.11 1.11 0 00-.318-.78 1.08 1.08 0 00-.769-.323H2.087a1.08 1.08 0 00-.769.323A1.11 1.11 0 001 5.56v6.615l10.326 2.282"/><path stroke="#FE4A64" d="M15.674 14.457L26 12.175V5.56a1.11 1.11 0 00-.318-.78 1.08 1.08 0 00-.769-.323H2.087a1.08 1.08 0 00-.769.323A1.11 1.11 0 001 5.56v6.615l10.326 2.282"/><path fill="#FDE3E7" stroke="#FE4A64" stroke-linejoin="round" d="M17 13h-6v3.258h6V13z"/><path stroke="#FE4A64" d="M8.667 4.801V3.172A2.172 2.172 0 0110.839 1h4.279a2.172 2.172 0 012.172 2.172v1.63"/></svg>