<svg xmlns="http://www.w3.org/2000/svg" width="21" height="30" fill="none"><path fill="#FFC9D0" fill-rule="evenodd" stroke="#FE4A64" stroke-linecap="round" stroke-linejoin="round" d="M19.586 1.978v22.499a4.89 4.89 0 01-4.891 4.89H1.978A.978.978 0 011 28.39V1.98C1 1.437 1.438 1 1.978 1h16.63c.54 0 .978.438.978.978z" clip-rule="evenodd"/><path stroke="#FE4A64" stroke-linecap="round" stroke-linejoin="round" d="M15.673 20.564a.978.978 0 100-1.957.978.978 0 000 1.957zM12.738 23.498a.978.978 0 100-1.956.978.978 0 000 1.956z"/><path fill="#FFE5E9" stroke="#FE4A64" stroke-linecap="round" stroke-linejoin="round" d="M16.651 3.935H3.935v10.76H16.65V3.935z"/><path stroke="#FE4A64" stroke-linecap="round" stroke-linejoin="round" d="M7.011 26.291l.694-.694M9.946 26.291l.694-.694M3.935 20.564h3.912M5.891 22.52v-3.913"/></svg>