<svg xmlns="http://www.w3.org/2000/svg" width="30" height="31" fill="none"><path fill="#FFC9D0" d="M23 14h5v5h-5z"/><path fill="#FFC9D0" d="M15.83 14.151c-1.182-1.436-3.317-2.238-5.153-2.238H6.741c-4.079 0-6.249 1.687-6.249 6.362v7.312c0 1.25 1.038 2.46 2.755 2.46v1.643h22.556v-4.104l2.135-.373c1.255-.217 1.767-1.157 1.477-2.431l-1.432-5.757"/><path stroke="#FE4A64" stroke-linejoin="round" stroke-width=".8" d="M15.83 14.151c-1.182-1.436-3.317-2.238-5.153-2.238H6.741c-4.079 0-6.249 1.687-6.249 6.362v7.312c0 1.25 1.038 2.46 2.755 2.46v1.643h22.556v-4.104l2.135-.373c1.255-.217 1.767-1.157 1.477-2.431l-1.432-5.757"/><path fill="#FFC9D0" d="M16.174 29.675v-4.088l-2.14-.375c-1.256-.216-1.767-1.156-1.507-2.43l1.52-6.166c.695-2.327 2.461-3.232 5.192-3.232h3.444c.85-.02 1.698.1 2.51.354"/><path stroke="#FE4A64" stroke-linejoin="round" stroke-width=".8" d="M16.174 29.675v-4.088l-2.14-.375c-1.256-.216-1.767-1.156-1.507-2.43l1.52-6.166c.695-2.327 2.461-3.232 5.192-3.232h3.444c.85-.02 1.698.1 2.51.354"/><path fill="#FFC9D0" stroke="#FE4A64" stroke-linejoin="round" stroke-width=".8" d="M27.358 17.069c.473.04.944-.094 1.323-.379.21-.16.39-.357.532-.58.708-1.083.034-1.654-.94-2.544-.62-.566-1.21-1.088-1.742-1.137a.812.812 0 00-.6.187c-.177.16-.323.35-.433.56a2.46 2.46 0 00.35 3.209c.415.387.945.627 1.51.684v0zM20.986 12.637a4.295 4.295 0 10-4.296-4.29 4.287 4.287 0 004.296 4.29v0zM8.714 11.807a4.625 4.625 0 10.01-9.251 4.625 4.625 0 00-.01 9.25v0z"/><path fill="#FFE5E9" d="M22.011 20.558l1.68 4.884a1.121 1.121 0 01-.7 1.439 1.139 1.139 0 01-1.438-.705s-.223-.587-.281-.81a2.29 2.29 0 00-1.762-1.685l-5.283-1.027c.193-1.392 1.726-4.52 4.555-5.284"/><path stroke="#FE4A64" stroke-linejoin="round" stroke-width=".8" d="M22.011 20.558l1.68 4.884a1.121 1.121 0 01-.7 1.439 1.139 1.139 0 01-1.438-.705s-.223-.587-.281-.81a2.29 2.29 0 00-1.762-1.685l-5.283-1.027c.193-1.392 1.726-4.52 4.555-5.284"/><path fill="#F3DADE" d="M21.242 14.804h.417a2.8 2.8 0 012.8 2.395c.141 1.122 1.404 1.034 1.38 1.82 0 1.004-.769 1.627-1.902 1.627-.942 0-1.884-.061-2.818-.182-2.348-.523-2.384-2.167-2.348-2.877a3.743 3.743 0 01.094-.898"/><path stroke="#FE4A64" stroke-linejoin="round" stroke-width=".8" d="M21.242 14.804h.417a2.8 2.8 0 012.8 2.395c.141 1.122 1.404 1.034 1.38 1.82 0 1.004-.769 1.627-1.902 1.627-.942 0-1.884-.061-2.818-.182-2.348-.523-2.384-2.167-2.348-2.877a3.743 3.743 0 01.094-.898"/><path fill="#F3DADE" stroke="#FE4A64" stroke-linejoin="round" stroke-width=".8" d="M21.407 18.339c.446-.1.757-.487.276-1.45a2.784 2.784 0 010-1.55c.058-.282-.177-.587-.834-.587-1.174 0-2.284.698-2.16 1.291.258 1.403 1.655 2.542 2.718 2.296z"/><path stroke="#FE4A64" stroke-linecap="round" stroke-width=".9" d="M3.688 29.55v-9.445"/></svg>