<svg xmlns="http://www.w3.org/2000/svg" width="29" height="29" fill="none"><path fill="#FFC9D0" stroke="#FF4A64" stroke-linecap="round" stroke-linejoin="round" d="M13.976 13.011l-3.684 3.26-4.584-4.579c-2.841-2.84-3.904-7.605-1.644-9.877l10.498 10.517c-.16.254-.358.483-.586.68v0zm11.381 10.115l-8.424-8.424-.29-.267a3.018 3.018 0 00-.68.58l-2.905 3.277c.219-.044.42-.151.58-.308l1.099-1.098 7.198 9.68a2.426 2.426 0 003.422-3.44v0z"/><path fill="#FFE5E9" stroke="#FF4A64" stroke-linecap="round" stroke-linejoin="round" d="M23.033 12.546a4.608 4.608 0 01-3.282 1.354c-2.127 0-2.952.215-3.754 1.121L5.087 27.338a2.423 2.423 0 01-3.423-3.428l12.312-10.899c.906-.802 1.12-1.627 1.12-3.753a4.648 4.648 0 011.355-3.283v0l6.582 6.571z"/><path stroke="#FF4A64" stroke-linecap="round" stroke-linejoin="round" d="M21.338 1L16.41 5.932l.082.082 4.928-4.932L21.338 1zM27.918 7.575l-4.932 4.928.082.083L28 7.658l-.082-.083zM25.728 5.387l-4.93 4.93.082.082 4.93-4.93-.082-.082zM23.533 3.195l-4.93 4.93.082.082 4.93-4.93-.082-.082z"/></svg>