<svg xmlns="http://www.w3.org/2000/svg" width="24" height="24" fill="none"><path fill="#FFC9D0" fill-rule="evenodd" d="M4.693 8.124V2.309c0-.215.174-.388.388-.388h2.912c.215 0 .389.173.389.388v2.26" clip-rule="evenodd"/><path stroke="#FE4A64" d="M4.693 8.124V2.309c0-.215.174-.388.388-.388h2.912c.215 0 .389.173.389.388v2.26"/><path fill="#FFC9D0" fill-rule="evenodd" stroke="#FE4A64" d="M1.387 12.413a.388.388 0 01-.274-.662L11.75 1.114a.388.388 0 01.55 0L22.937 11.75a.389.389 0 01-.274.662h-2.33v10.609a.388.388 0 01-.388.388H4.105c-.406 0-.389-.36-.389-.36V12.413h-2.33z" clip-rule="evenodd"/><path fill="#FFE6E9" fill-rule="evenodd" d="M8.938 23.026V15.51c0-.22.167-.397.372-.397h5.43c.205 0 .372.178.372.397v7.541" clip-rule="evenodd"/><path stroke="#FE4A64" d="M8.938 23.026V15.51c0-.22.167-.397.372-.397h5.43c.205 0 .372.178.372.397v7.541"/><path stroke="#FE4A64" stroke-linecap="round" d="M13.242 4.939l4.434 4.434"/></svg>