<svg xmlns="http://www.w3.org/2000/svg" width="26" height="28" fill="none"><path fill="#FFC9D0" fill-rule="evenodd" stroke="#FE4A64" d="M24.891 18.436l-4.148-2.422-1.687-4.607a2.897 2.897 0 00-1.497-1.633L14.86 8.53V7.27h-3.316v1.245L8.847 9.761a2.874 2.874 0 00-1.488 1.646l-1.686 4.62-4.138 2.409a1.127 1.127 0 001.052 1.986L7.1 18.263l2.084-4.58s.938 4.83-.84 7.387l4.867 1.585 4.87-1.585c-1.777-2.557-.84-7.387-.84-7.387l2.082 4.58 4.516 2.16a1.126 1.126 0 001.052-1.987z" clip-rule="evenodd"/><path fill="#FFE5E9" stroke="#FE4A64" d="M13.211 7.713a3.39 3.39 0 100-6.779 3.39 3.39 0 000 6.78z"/><path fill="#FFC9D0" stroke="#FE4A64" d="M16.614 23.13a1.096 1.096 0 00-1.268-.3l-.52.227-7.55-2.456a1.73 1.73 0 00-2.048.776 1.686 1.686 0 001.174 2.462l9.619 2.122c-.022.51.318.965.813 1.089.425.107.872-.056 1.13-.412a1.623 1.623 0 00-.071-1.99l-1.279-1.517z"/><path fill="#FFC9D0" stroke="#FE4A64" d="M9.812 23.13c.31-.37.828-.492 1.271-.3l.52.226 7.548-2.455c.781-.266 1.64.06 2.05.776a1.687 1.687 0 01-1.17 2.462l-9.626 2.121a1.073 1.073 0 01-1.94.678 1.615 1.615 0 01.072-1.99l1.275-1.517z"/></svg>