<svg xmlns="http://www.w3.org/2000/svg" width="33" height="25" fill="none"><path fill="#FFC9D0" stroke="#FF4A64" d="M15.004 17.315l-1.684-.51c-5.973-1.798-9.915-2.982-11.302-5.85-1.13-2.338-.017-4.995 2.53-6.039a5.856 5.856 0 014.49.06c.431-1.34 1.515-2.521 2.954-3.111C14.54.82 17.43 1.836 18.56 4.173c1.387 2.869-.295 6.359-2.837 11.656l-.718 1.486z"/><path fill="#FFE6E9" stroke="#FF4A64" d="M21.845 21.156l-.236-1.045c-.848-3.703-1.408-6.146-.097-7.807 1.068-1.354 3.067-1.642 4.542-.655.834.558 1.353 1.449 1.43 2.36.967-.213 2.048-.034 2.881.524 1.476.987 1.796 2.826.728 4.18-1.311 1.661-4.008 1.925-8.099 2.332l-1.149.111z"/></svg>