<svg xmlns="http://www.w3.org/2000/svg" width="34" height="28" fill="none"><path fill="#FFC9D0" d="M21.5 6.184h7.758l3.035.132.377.502-3.835 12.78H12.227L8.24 6.317l9.025-.132H21.5z"/><path stroke="#FE4A64" stroke-linecap="round" stroke-linejoin="round" d="M1 1h5.29a.383.383 0 01.376.278l5.574 18.32h16.595l3.834-12.78a.391.391 0 00-.376-.502H8.273"/><path fill="#FDE3E7" stroke="#FE4A64" d="M13.218 26.91a2.327 2.327 0 100-4.654 2.327 2.327 0 000 4.655zM27.506 26.91a2.327 2.327 0 100-4.654 2.327 2.327 0 000 4.655z"/><path stroke="#FE4A64" d="M14.864 22.924H25.88M9.397 10.303h22.201M10.779 14.838h19.444M14.223 6.184L17.9 19.599M23.526 19.599l3.319-13.422"/></svg>