<svg xmlns="http://www.w3.org/2000/svg" width="35" height="26" fill="none"><path fill="#FFC9D0" fill-rule="evenodd" stroke="#FE4A64" stroke-linecap="round" stroke-linejoin="round" d="M12.765 21.546l.677-1.65-1.048-.438c.185-.784.185-1.6 0-2.384l1.056-.429-.668-1.65-1.048.429a5.147 5.147 0 00-1.65-1.691l.445-1.048L8.88 12l-.445 1.048a5.289 5.289 0 00-2.385 0L5.62 12l-1.65.66.43 1.048a5.396 5.396 0 00-1.65 1.65L1.7 14.92l-.676 1.65 1.048.437a5.288 5.288 0 000 2.384L1 19.854l.66 1.65 1.056-.429a5.148 5.148 0 001.65 1.692l-.445 1.047 1.65.685.445-1.047c.785.181 1.6.181 2.385 0l.396 1.047 1.65-.66-.43-1.047a5.396 5.396 0 001.65-1.65l1.098.404z" clip-rule="evenodd"/><path stroke="#FE4A64" stroke-linecap="round" stroke-linejoin="round" d="M9.985 19.432a2.987 2.987 0 11-5.508-2.311 2.987 2.987 0 015.508 2.311v0z" clip-rule="evenodd"/><path fill="#FFE5E9" fill-rule="evenodd" stroke="#FE4A64" stroke-linecap="round" stroke-linejoin="round" d="M9.985 19.432a2.987 2.987 0 11-5.508-2.311 2.987 2.987 0 015.508 2.311v0z" clip-rule="evenodd"/><path stroke="#FE4A64" stroke-linecap="round" stroke-linejoin="round" d="M7.906 18.278a.677.677 0 11-1.353 0 .677.677 0 011.353 0v0z" clip-rule="evenodd"/><path fill="#FFC9D0" fill-rule="evenodd" stroke="#FE4A64" stroke-linecap="round" stroke-linejoin="round" d="M31.161 14.662l.09-2.568-1.64-.063a7.42 7.42 0 00-1.195-3.22l1.217-1.11L27.9 5.81l-1.205 1.106a7.428 7.428 0 00-3.085-1.453l.079-1.639-2.58-.094-.078 1.64c-1.155.149-2.26.56-3.232 1.2l-1.107-1.2-1.905 1.722 1.106 1.199a7.785 7.785 0 00-1.41 3.058l-1.639-.063-.09 2.568 1.64.063a7.586 7.586 0 001.195 3.219l-1.222 1.163 1.722 1.896 1.216-1.111a7.429 7.429 0 003.084 1.453l-.078 1.639 2.58.094.078-1.639a7.677 7.677 0 003.232-1.2l1.062 1.215 1.905-1.721-1.106-1.199a7.785 7.785 0 001.41-3.058l1.689-.006z" clip-rule="evenodd"/><path stroke="#FE4A64" stroke-linecap="round" stroke-linejoin="round" d="M26.333 13.208a4.324 4.324 0 01-4.497 4.125 4.295 4.295 0 01-4.127-4.471 4.324 4.324 0 017.491-2.747 4.285 4.285 0 011.133 3.093v0z" clip-rule="evenodd"/><path fill="#FFE5E9" fill-rule="evenodd" stroke="#FE4A64" stroke-linecap="round" stroke-linejoin="round" d="M26.333 13.208a4.324 4.324 0 01-4.497 4.125 4.295 4.295 0 01-4.127-4.471 4.324 4.324 0 017.491-2.747 4.285 4.285 0 011.133 3.093v0z" clip-rule="evenodd"/><path stroke="#FE4A64" stroke-linecap="round" stroke-linejoin="round" d="M22.937 12.695a.976.976 0 01-.578 1.254.976.976 0 01-1.256-.573.976.976 0 01.578-1.254.976.976 0 011.256.573v0z" clip-rule="evenodd"/></svg>