<svg xmlns="http://www.w3.org/2000/svg" width="160" height="58" viewBox="0 0 160 58">
  <g fill="none" fill-rule="evenodd">
    <path fill="#009D90" d="M58.8094915,22.5182238 L1.54187774e-12,26.2909857 L6.99389831,8.33031905 L55.4237288,13.405319 L58.8094915,22.5182238 Z M8.74847458,29.146519 L53.2488136,26.2920905 L53.2488136,46.9041857 L41.5010169,46.9041857 L41.5010169,36.5359952 L32.6223729,36.5359952 L32.6223729,46.9041857 L30.0813559,46.9041857 L30.0813559,36.5359952 L21.2040678,36.5359952 L21.2040678,46.9041857 L8.74847458,46.9041857 L8.74847458,29.146519 Z"/>
    <polygon fill="#009D90" points="70.233 57.033 71.585 57.033 71.585 0 70.233 0"/>
    <path fill="#009D90" fill-rule="nonzero" d="M99.4326972,48.1474186 L96.7616705,48.1474186 L96.7616705,38.9972731 L93.2501109,48.1474186 L92.0920434,48.1474186 L88.5804838,38.9972731 L88.5804838,48.1474186 L85.9281356,48.1474186 L85.9281356,35.4589632 L89.6451588,35.4589632 L92.6710772,43.3916257 L95.6969955,35.4589632 L99.4326972,35.4589632 L99.4326972,48.1474186 Z M109.615943,48.1474186 L107.225094,48.1474186 L107.225094,47.1772368 C106.608703,47.9381637 105.544028,48.3756966 104.367282,48.3756966 C102.929037,48.3756966 101.247971,47.3864917 101.247971,45.3319892 C101.247971,43.1633477 102.929037,42.3643745 104.367282,42.3643745 C105.581385,42.3643745 106.627382,42.7638611 107.225094,43.4867416 L107.225094,42.3263281 C107.225094,41.3941927 106.440597,40.7854512 105.245172,40.7854512 C104.292568,40.7854512 103.396,41.1659147 102.648859,41.869772 L101.714934,40.1767098 C102.816966,39.1684817 104.236533,38.7309487 105.656099,38.7309487 C107.729414,38.7309487 109.615943,39.5679683 109.615943,42.2121891 L109.615943,48.1474186 Z M105.319886,46.7397039 C106.085705,46.7397039 106.832845,46.4733795 107.225094,45.9407307 L107.225094,44.7993404 C106.832845,44.2666916 106.085705,43.981344 105.319886,43.981344 C104.385961,43.981344 103.620142,44.4949697 103.620142,45.3700356 C103.620142,46.2451014 104.385961,46.7397039 105.319886,46.7397039 Z M114.289029,48.1474186 L111.916858,48.1474186 L111.916858,38.9592268 L114.289029,38.9592268 L114.289029,40.1957329 C114.942777,39.3967597 116.044809,38.7309487 117.165519,38.7309487 L117.165519,41.089822 C116.997413,41.0517756 116.791949,41.0327525 116.511771,41.0327525 C115.727274,41.0327525 114.681278,41.4893086 114.289029,42.0790269 L114.289029,48.1474186 Z M127.423479,48.1474186 L124.453596,48.1474186 L122.062747,44.6091087 L120.979394,45.7885453 L120.979394,48.1474186 L118.607223,48.1474186 L118.607223,35.4589632 L120.979394,35.4589632 L120.979394,43.0492086 L124.397561,38.9592268 L127.311408,38.9592268 L123.743813,43.1253013 L127.423479,48.1474186 Z M132.302028,48.3756966 C129.556288,48.3756966 127.482973,46.4924027 127.482973,43.5438111 C127.482973,40.8805671 129.425538,38.7309487 132.1526,38.7309487 C134.860984,38.7309487 136.672799,40.7854512 136.672799,43.7720892 L136.672799,44.3427843 L129.967215,44.3427843 C130.135321,45.4651514 131.03189,46.3972868 132.563528,46.3972868 C133.329346,46.3972868 134.375343,46.0738929 134.954377,45.5031978 L136.019052,47.1011442 C135.122483,47.9381637 133.702917,48.3756966 132.302028,48.3756966 Z M134.394021,42.6687452 C134.319307,41.7936793 133.721595,40.7093586 132.1526,40.7093586 C130.676998,40.7093586 130.041929,41.755633 129.948536,42.6687452 L134.394021,42.6687452 Z M141.383242,48.3756966 C139.720855,48.3756966 138.842965,47.5006308 138.842965,45.8456148 L138.842965,41.0707988 L137.348684,41.0707988 L137.348684,38.9592268 L138.842965,38.9592268 L138.842965,36.4481682 L141.215136,36.4481682 L141.215136,38.9592268 L143.04563,38.9592268 L143.04563,41.0707988 L141.215136,41.0707988 L141.215136,45.198827 C141.215136,45.7885453 141.513992,46.2260783 142.03699,46.2260783 C142.391882,46.2260783 142.728095,46.0929161 142.858844,45.9407307 L143.363164,47.7859783 C143.008273,48.1093722 142.373203,48.3756966 141.383242,48.3756966 Z"/>
    <path fill="#FF5100" d="M107.810983,9.20625714 L120.997424,9.20625714 L120.997424,13.6225429 L112.982508,13.6225429 L112.982508,17.215781 L119.920814,17.215781 L119.920814,21.6016857 L112.982508,21.6016857 L112.982508,25.3164476 L120.997424,25.3164476 L120.997424,29.7617333 L107.810983,29.7617333 L107.810983,9.20625714 Z M125.374644,9.20625714 L138.562441,9.20625714 L138.562441,13.6225429 L130.547525,13.6225429 L130.547525,17.215781 L137.485831,17.215781 L137.485831,21.6016857 L130.547525,21.6016857 L130.547525,25.3164476 L138.562441,25.3164476 L138.562441,29.7617333 L125.374644,29.7617333 L125.374644,9.20625714 Z M153.733966,29.7621476 L149.786847,21.9059095 L148.142102,24.6153381 L148.142102,29.7621476 L142.93939,29.7621476 L142.93939,9.20667143 L148.142102,9.20667143 L148.142102,17.7644333 L153.374644,9.20667143 L159.176678,9.20667143 L153.344814,18.1290048 L159.413966,29.7621476 L153.733966,29.7621476 Z M96.3240678,17.143419 L101.967458,17.143419 L101.967458,27.4066571 C101.967458,28.746181 100.950508,29.7515143 99.6650847,29.7515143 L89.559322,29.7515143 C88.2738983,29.7515143 87.2257627,28.746181 87.2257627,27.4066571 L87.2257627,11.5091333 C87.2257627,10.2621333 88.2738983,9.1960381 89.559322,9.1960381 L102.058305,9.1960381 L102.058305,13.6109429 L92.6983051,13.6109429 C92.5491525,13.6109429 92.3986441,13.7628476 92.3986441,13.9465143 L92.3986441,24.9692762 C92.3986441,25.1529429 92.5491525,25.2744667 92.6983051,25.2744667 L96.8840678,25.2744667 C97.0928814,25.2744667 97.2122034,25.1529429 97.2122034,24.9692762 L97.2122034,21.4989429 L94.4922034,21.4989429 L96.3240678,17.143419 Z"/>
  </g>
</svg>
