<?xml version="1.0" standalone="no"?><!DOCTYPE svg PUBLIC "-//W3C//DTD SVG 1.1//EN" "http://www.w3.org/Graphics/SVG/1.1/DTD/svg11.dtd"><svg t="1663205114409" class="icon" viewBox="0 0 1024 1024" version="1.1" xmlns="http://www.w3.org/2000/svg" p-id="1140" xmlns:xlink="http://www.w3.org/1999/xlink" width="200" height="200"><path d="M639.186824 992.662588H411.166118c-16.64 0-30.117647-13.477647-30.117647-30.117647s13.477647-30.117647 30.117647-30.117647h228.005647c45.101176 0 87.898353-13.266824 123.783529-38.369882 35.388235-24.696471 62.057412-59.075765 77.146353-99.46353l87.130353-232.327529c16.594824-44.001882 10.511059-93.304471-16.248471-131.900235a142.953412 142.953412 0 0 0-117.504-61.530353H638.704941c-14.712471 0-28.867765-7.062588-37.782588-18.913883-8.944941-11.866353-11.821176-27.497412-7.649882-41.803294 7.966118-26.910118 13.236706-56.922353 16.128-91.858823 4.848941-60.16-36.442353-113.106824-96.045177-123.090824-59.602824-9.984-115.877647 26.639059-130.921412 85.157647-11.203765 43.595294-28.807529 87.792941-52.34447 131.373177-19.757176 36.502588-57.750588 59.136-99.20753 59.136h-0.210823c-78.893176 0-143.119059 64.225882-143.119059 143.164235v207.947294c0 130.183529 58.88 200.598588 174.983529 209.302588 16.594824 1.249882 29.018353 15.691294 27.78353 32.286118-1.249882 16.579765-15.706353 29.018353-32.286118 27.783529-77.357176-5.797647-136.734118-34.349176-176.459294-84.85647C45.568 858.699294 27.316706 796.611765 27.316706 719.947294V512c0-112.158118 91.241412-203.399529 203.399529-203.399529h0.105412c19.380706 0 37.074824-10.541176 46.275765-27.542589 21.187765-39.243294 36.999529-78.863059 46.983529-117.699764 10.977882-42.736941 37.391059-79.510588 74.37553-103.574589 36.984471-24.064 81.317647-33.295059 124.837647-26.006588 43.52 7.288471 82.416941 30.464 109.552941 65.249883 27.136 34.785882 40.116706 78.170353 36.577882 122.157176-2.680471 32.301176-7.228235 61.063529-13.854117 87.431529H793.509647c66.590118 0 129.008941 32.677647 166.972235 87.461647 38.023529 54.874353 46.682353 124.928 23.130353 187.422118L896.527059 815.736471c-19.365647 51.862588-53.624471 96.045176-99.056941 127.728941-46.034824 32.165647-100.773647 49.197176-158.283294 49.197176z m-0.361412-684.062117h-0.045177 0.090353-0.045176z m-364.363294 492.724705c-16.64 0-30.117647-13.477647-30.117647-30.117647V543.171765c0-16.64 13.477647-30.117647 30.117647-30.117647s30.117647 13.477647 30.117647 30.117647v228.035764c0 16.64-13.477647 30.117647-30.117647 30.117647z" p-id="1141" fill="#ffffff"></path></svg>